<svg width="343" height="100" viewBox="0 0 343 100" fill="none" xmlns="http://www.w3.org/2000/svg">
<path d="M0 20C0 8.9543 8.95702 0 20.0061 0H180.055C191.104 0 200.061 8.95431 200.061 20V80C200.061 91.0457 191.104 100 180.055 100H20.0061C8.95702 100 0 91.0457 0 80V20Z" fill="#BA6BFF"/>
<path d="M71.9993 78.144C72.4261 78.144 72.7462 78.3573 72.9596 78.784C73.2157 79.2533 73.3437 79.8507 73.3437 80.576C73.3437 81.9413 72.981 83.2853 72.2554 84.608C70.8043 87.2533 68.8837 89.28 66.4937 90.688C64.1463 92.1387 61.7349 92.864 59.2595 92.864C56.7414 92.864 54.6287 92.4587 52.9215 91.648C51.2144 90.88 49.7633 89.7067 48.5682 88.128C47.3732 86.592 46.2208 84.544 45.1112 81.984C43.9588 79.3387 42.9985 77.3547 42.2303 76.032C41.5047 74.752 40.7365 73.8133 39.9256 73.216C39.1147 72.6187 38.069 72.192 36.7887 71.936C32.0512 70.9973 28.2314 68.6507 25.3292 64.896C22.4696 61.1413 21.0399 56.2987 21.0399 50.368C21.0399 43.8827 22.2136 38.1653 24.5609 33.216C26.951 28.2667 30.1733 24.448 34.2279 21.76C38.3251 19.072 42.8492 17.728 47.8 17.728C51.5985 17.728 55.0128 18.5813 58.0431 20.288C61.116 21.9947 63.5488 24.512 65.3413 27.84C67.1339 31.1253 68.0301 35.072 68.0301 39.68C68.0301 45.056 67.2192 49.8987 65.5974 54.208C63.9756 58.5173 61.7349 62.1013 58.8754 64.96C56.0158 67.8187 52.7295 69.8453 49.0164 71.04C50.0834 71.6373 51.001 72.512 51.7692 73.664C52.5801 74.816 53.4337 76.48 54.33 78.656C55.3116 81.0453 56.3573 82.752 57.4669 83.776C58.6193 84.8 60.0277 85.312 61.6922 85.312C63.1006 85.312 64.4664 84.8213 65.7894 83.84C67.1125 82.9013 68.6063 81.344 70.2708 79.168C70.783 78.4853 71.3591 78.144 71.9993 78.144ZM41.9102 64.768C45.2392 64.768 48.1628 63.744 50.6809 61.696C53.2416 59.648 55.2049 56.8107 56.5707 53.184C57.9364 49.5147 58.6193 45.376 58.6193 40.768C58.6193 35.6907 57.5523 31.8507 55.4183 29.248C53.2843 26.6027 50.5315 25.28 47.1598 25.28C43.9161 25.28 41.0139 26.3253 38.4532 28.416C35.9351 30.464 33.9718 33.3013 32.5634 36.928C31.1549 40.5547 30.4507 44.672 30.4507 49.28C30.4507 54.3573 31.5177 58.2187 33.6517 60.864C35.7857 63.4667 38.5385 64.768 41.9102 64.768Z" fill="white"/>
<path d="M120.04 52.544C120.168 52.5013 120.381 52.48 120.68 52.48C121.32 52.48 121.811 52.6933 122.153 53.12C122.494 53.5467 122.665 54.1227 122.665 54.848C122.665 56.1707 122.409 57.216 121.896 57.984C121.384 58.7093 120.616 59.2427 119.592 59.584C117.629 60.224 115.537 60.544 113.318 60.544C111.44 60.544 109.669 60.288 108.004 59.776C106.767 61.7813 105.401 63.8507 103.907 65.984C102.2 68.416 100.727 70.08 99.4897 70.976C98.2946 71.872 96.9289 72.32 95.3924 72.32C93.6852 72.32 92.3835 71.6587 91.4872 70.336C90.6336 69.0133 90.1001 66.8373 89.8867 63.808L89.5667 59.136C88.2436 62.72 87.0486 65.4507 85.9816 67.328C84.9573 69.2053 83.9116 70.5067 82.8446 71.232C81.8203 71.9573 80.6039 72.32 79.1955 72.32C77.4456 72.32 76.0586 71.6373 75.0342 70.272C74.0526 68.9067 73.4338 66.752 73.1777 63.808C72.6655 57.8347 72.4094 52.608 72.4094 48.128V45.888C72.4521 44.48 72.8362 43.4987 73.5618 42.944C74.2874 42.3893 75.3757 42.112 76.8268 42.112C77.9365 42.112 78.7474 42.368 79.2595 42.88C79.8144 43.3493 80.0918 44.16 80.0918 45.312C80.0918 50.2187 80.3905 56.5973 80.9881 64.448C83.8903 58.3467 86.5577 51.9893 88.9905 45.376C89.46 44.096 90.0148 43.2427 90.655 42.816C91.3379 42.3467 92.1488 42.112 93.0877 42.112C94.2401 42.112 95.0296 42.3467 95.4564 42.816C95.9259 43.2853 96.1607 44.1173 96.1607 45.312C96.1607 50.2187 96.4594 56.5973 97.0569 64.448C99.6177 60.6507 101.538 57.6213 102.819 55.36C102.178 54.1227 101.858 52.6507 101.858 50.944C101.858 49.4933 102.178 48.0853 102.819 46.72C103.459 45.3547 104.334 44.2453 105.443 43.392C106.553 42.5387 107.812 42.112 109.221 42.112C110.458 42.112 111.461 42.56 112.23 43.456C112.998 44.3093 113.382 45.568 113.382 47.232C113.382 49.152 112.87 51.3493 111.845 53.824C113.467 53.7387 115.623 53.4187 118.311 52.864L120.04 52.544Z" fill="white"/>
<path d="M125.494 37.952C123.702 37.952 122.357 37.5467 121.461 36.736C120.565 35.8827 120.116 34.7093 120.116 33.216C120.116 31.7227 120.693 30.4853 121.845 29.504C123.04 28.48 124.512 27.968 126.262 27.968C127.841 27.968 129.122 28.352 130.103 29.12C131.085 29.888 131.576 30.976 131.576 32.384C131.576 34.0907 131.021 35.456 129.911 36.48C128.802 37.4613 127.329 37.952 125.494 37.952ZM124.982 72.32C122.208 72.32 120.18 71.3387 118.9 69.376C117.662 67.4133 117.043 64.8107 117.043 61.568C117.043 59.648 117.278 57.1947 117.748 54.208C118.26 51.1787 118.9 48.3627 119.668 45.76C120.052 44.3947 120.565 43.456 121.205 42.944C121.845 42.432 122.869 42.176 124.278 42.176C126.454 42.176 127.543 42.9013 127.543 44.352C127.543 45.4187 127.137 47.8933 126.326 51.776C125.302 56.4693 124.79 59.648 124.79 61.312C124.79 62.592 124.961 63.5733 125.302 64.256C125.643 64.9387 126.22 65.28 127.031 65.28C127.799 65.28 128.759 64.7467 129.911 63.68C131.064 62.6133 132.6 60.928 134.521 58.624C135.033 58.0267 135.609 57.728 136.249 57.728C136.804 57.728 137.231 57.984 137.53 58.496C137.871 59.008 138.042 59.712 138.042 60.608C138.042 62.3147 137.636 63.6373 136.825 64.576C132.6 69.7387 128.652 72.32 124.982 72.32Z" fill="white"/>
<path d="M144.77 72.32C140.715 72.32 137.536 71.1467 135.231 68.8C132.969 66.4107 131.838 63.2747 131.838 59.392C131.838 55.936 132.521 52.9067 133.887 50.304C135.252 47.7013 137.024 45.696 139.2 44.288C141.377 42.88 143.66 42.176 146.05 42.176C148.398 42.176 150.212 42.88 151.492 44.288C152.815 45.6533 153.477 47.424 153.477 49.6C153.477 51.392 153.071 52.9067 152.26 54.144C151.492 55.3813 150.468 56 149.187 56C148.376 56 147.715 55.808 147.203 55.424C146.733 55.04 146.498 54.5067 146.498 53.824C146.498 53.5253 146.541 53.184 146.626 52.8C146.712 52.416 146.776 52.1387 146.819 51.968C147.032 51.328 147.139 50.7307 147.139 50.176C147.139 49.6213 146.989 49.1947 146.69 48.896C146.434 48.5973 146.05 48.448 145.538 48.448C144.557 48.448 143.639 48.896 142.785 49.792C141.932 50.6453 141.249 51.8187 140.737 53.312C140.225 54.8053 139.968 56.448 139.968 58.24C139.968 60.672 140.459 62.528 141.441 63.808C142.465 65.0453 143.895 65.664 145.73 65.664C147.181 65.664 148.504 65.2373 149.699 64.384C150.937 63.5307 152.153 62.272 153.348 60.608C153.861 59.968 154.437 59.648 155.077 59.648C155.632 59.648 156.059 59.904 156.357 60.416C156.699 60.928 156.87 61.632 156.87 62.528C156.87 64.064 156.507 65.3867 155.781 66.496C154.629 68.288 153.114 69.7173 151.236 70.784C149.358 71.808 147.203 72.32 144.77 72.32Z" fill="white"/>
<path d="M180.105 72.32C178.227 72.32 176.797 71.808 175.816 70.784C174.877 69.76 174.407 68.416 174.407 66.752C174.407 64.832 174.941 63.296 176.008 62.144C177.118 60.992 178.654 60.416 180.617 60.416C182.495 60.416 183.904 60.8853 184.843 61.824C185.824 62.72 186.315 64.064 186.315 65.856C186.315 67.8187 185.76 69.3973 184.65 70.592C183.541 71.744 182.026 72.32 180.105 72.32Z" fill="white"/>
<path d="M235.001 72.32C229.922 72.32 225.505 71.4027 221.749 69.568C217.993 67.6907 215.112 65.0453 213.106 61.632C211.1 58.2187 210.097 54.2507 210.097 49.728C210.097 43.456 211.271 37.888 213.618 33.024C216.008 28.16 219.231 24.4053 223.285 21.76C227.34 19.072 231.842 17.728 236.793 17.728C241.403 17.728 244.902 18.9227 247.292 21.312C249.683 23.6587 250.878 26.7733 250.878 30.656C250.878 33.2587 250.408 35.3493 249.469 36.928C248.573 38.5067 247.271 39.296 245.564 39.296C244.369 39.296 243.43 39.0187 242.747 38.464C242.064 37.9093 241.723 37.0987 241.723 36.032C241.723 35.648 241.808 34.944 241.979 33.92C242.235 32.64 242.363 31.616 242.363 30.848C242.363 26.9653 240.293 25.024 236.153 25.024C233.336 25.024 230.647 25.9413 228.087 27.776C225.526 29.6107 223.456 32.32 221.877 35.904C220.298 39.4453 219.508 43.6693 219.508 48.576C219.508 53.696 220.938 57.664 223.797 60.48C226.657 63.2533 230.882 64.64 236.473 64.64C239.247 64.64 242.043 64.2987 244.86 63.616C247.719 62.8907 250.878 61.8027 254.335 60.352C254.975 60.096 255.508 59.968 255.935 59.968C256.618 59.968 257.13 60.224 257.472 60.736C257.813 61.248 257.984 61.9093 257.984 62.72C257.984 65.3227 256.575 67.2427 253.758 68.48C250.728 69.8027 247.57 70.784 244.284 71.424C241.04 72.0213 237.946 72.32 235.001 72.32Z" fill="#BA6BFF"/>
<path d="M277.225 57.728C277.779 57.728 278.206 57.984 278.505 58.496C278.846 59.008 279.017 59.712 279.017 60.608C279.017 62.3147 278.612 63.6373 277.801 64.576C275.965 66.8373 273.96 68.6933 271.783 70.144C269.649 71.5947 267.216 72.32 264.485 72.32C260.729 72.32 257.933 70.6133 256.098 67.2C254.306 63.7867 253.409 59.3707 253.409 53.952C253.409 48.7467 254.071 42.816 255.394 36.16C256.76 29.504 258.744 23.7867 261.348 19.008C263.994 14.2293 267.131 11.84 270.759 11.84C272.807 11.84 274.408 12.8 275.56 14.72C276.755 16.5973 277.353 19.3067 277.353 22.848C277.353 27.9253 275.944 33.8133 273.127 40.512C270.31 47.2107 266.491 53.8453 261.668 60.416C261.967 62.1653 262.457 63.424 263.14 64.192C263.823 64.9173 264.719 65.28 265.829 65.28C267.579 65.28 269.115 64.7893 270.439 63.808C271.762 62.784 273.447 61.056 275.496 58.624C276.008 58.0267 276.584 57.728 277.225 57.728ZM269.35 18.176C268.369 18.176 267.259 19.9467 266.021 23.488C264.783 27.0293 263.695 31.424 262.756 36.672C261.817 41.92 261.305 46.9547 261.22 51.776C264.25 46.784 266.661 41.792 268.454 36.8C270.246 31.7653 271.143 27.1787 271.143 23.04C271.143 19.7973 270.545 18.176 269.35 18.176Z" fill="#BA6BFF"/>
<path d="M282.229 37.952C280.437 37.952 279.092 37.5467 278.196 36.736C277.3 35.8827 276.851 34.7093 276.851 33.216C276.851 31.7227 277.428 30.4853 278.58 29.504C279.775 28.48 281.247 27.968 282.997 27.968C284.576 27.968 285.857 28.352 286.838 29.12C287.82 29.888 288.311 30.976 288.311 32.384C288.311 34.0907 287.756 35.456 286.646 36.48C285.537 37.4613 284.064 37.952 282.229 37.952ZM281.717 72.32C278.943 72.32 276.915 71.3387 275.635 69.376C274.397 67.4133 273.779 64.8107 273.779 61.568C273.779 59.648 274.013 57.1947 274.483 54.208C274.995 51.1787 275.635 48.3627 276.403 45.76C276.787 44.3947 277.3 43.456 277.94 42.944C278.58 42.432 279.604 42.176 281.013 42.176C283.189 42.176 284.278 42.9013 284.278 44.352C284.278 45.4187 283.872 47.8933 283.061 51.776C282.037 56.4693 281.525 59.648 281.525 61.312C281.525 62.592 281.696 63.5733 282.037 64.256C282.378 64.9387 282.955 65.28 283.766 65.28C284.534 65.28 285.494 64.7467 286.646 63.68C287.799 62.6133 289.335 60.928 291.256 58.624C291.768 58.0267 292.344 57.728 292.984 57.728C293.539 57.728 293.966 57.984 294.265 58.496C294.606 59.008 294.777 59.712 294.777 60.608C294.777 62.3147 294.371 63.6373 293.56 64.576C289.335 69.7387 285.387 72.32 281.717 72.32Z" fill="#BA6BFF"/>
<path d="M301.825 72.32C297.642 72.32 294.377 71.1467 292.03 68.8C289.725 66.4107 288.573 63.2747 288.573 59.392C288.573 55.936 289.256 52.9067 290.622 50.304C291.987 47.7013 293.759 45.696 295.935 44.288C298.112 42.88 300.395 42.176 302.785 42.176C305.133 42.176 306.947 42.88 308.227 44.288C309.55 45.6533 310.212 47.424 310.212 49.6C310.212 51.392 309.806 52.9067 308.995 54.144C308.227 55.3813 307.203 56 305.922 56C305.111 56 304.45 55.808 303.938 55.424C303.468 55.04 303.233 54.5067 303.233 53.824C303.233 53.5253 303.276 53.184 303.361 52.8C303.447 52.416 303.511 52.1387 303.554 51.968C303.767 51.328 303.874 50.7307 303.874 50.176C303.874 49.6213 303.724 49.1947 303.425 48.896C303.169 48.5973 302.785 48.448 302.273 48.448C301.292 48.448 300.374 48.896 299.52 49.792C298.667 50.6453 297.984 51.8187 297.472 53.312C296.96 54.8053 296.703 56.448 296.703 58.24C296.703 63.1893 298.859 65.664 303.169 65.664C304.919 65.664 306.797 65.088 308.803 63.936C310.852 62.7413 312.858 60.9707 314.821 58.624C315.333 58.0267 315.909 57.728 316.549 57.728C317.104 57.728 317.531 57.984 317.83 58.496C318.171 59.008 318.342 59.712 318.342 60.608C318.342 62.2293 317.937 63.552 317.126 64.576C315.12 67.0507 312.708 68.9707 309.891 70.336C307.117 71.6587 304.428 72.32 301.825 72.32Z" fill="#BA6BFF"/>
<path d="M340.375 65.344C342.125 65.6853 343 66.6453 343 68.224C343 69.2907 342.509 70.2507 341.528 71.104C340.589 71.9147 339.223 72.32 337.43 72.32C334.357 72.32 331.839 71.3813 329.876 69.504C327.955 67.584 326.995 65.088 326.995 62.016C326.995 60.352 327.849 59.1573 329.556 58.432C331.434 57.6213 332.778 56.768 333.589 55.872C334.4 54.9333 334.806 53.8027 334.806 52.48C334.806 51.712 334.635 51.136 334.293 50.752C333.995 50.368 333.61 50.176 333.141 50.176C331.989 50.176 330.708 51.008 329.3 52.672C327.934 54.336 326.654 56.4907 325.459 59.136C324.264 61.7387 323.325 64.4267 322.642 67.2C322.172 69.2053 321.618 70.5707 320.977 71.296C320.38 71.9787 319.419 72.32 318.096 72.32C316.773 72.32 315.792 71.8507 315.152 70.912C314.554 69.9307 314.149 68.4373 313.935 66.432C313.722 64.4267 313.615 61.4827 313.615 57.6C313.615 51.0293 314.277 44.1813 315.6 37.056C316.965 29.9307 318.95 23.9573 321.553 19.136C324.2 14.272 327.358 11.84 331.028 11.84C332.992 11.84 334.571 12.6933 335.766 14.4C337.004 16.064 337.622 18.24 337.622 20.928C337.622 25.2373 336.363 29.7173 333.845 34.368C331.327 38.976 327.23 44.3733 321.553 50.56C321.425 52.7787 321.361 55.0613 321.361 57.408C323.41 52.0747 325.757 48.2133 328.404 45.824C331.05 43.392 333.525 42.176 335.83 42.176C337.964 42.176 339.671 42.9013 340.951 44.352C342.274 45.8027 342.936 47.5947 342.936 49.728C342.936 52.0747 342.338 54.2293 341.143 56.192C339.948 58.1547 337.9 59.904 334.998 61.44C335.254 62.72 335.766 63.616 336.534 64.128C337.345 64.5973 338.625 65.0027 340.375 65.344ZM329.684 18.176C328.916 18.176 328.062 19.2853 327.123 21.504C326.184 23.68 325.267 26.6453 324.37 30.4C323.517 34.112 322.813 38.1653 322.258 42.56C324.904 39.4453 327.08 36.0533 328.788 32.384C330.538 28.7147 331.412 25.3867 331.412 22.4C331.412 21.0347 331.263 19.9893 330.964 19.264C330.666 18.5387 330.239 18.176 329.684 18.176Z" fill="#BA6BFF"/>
</svg>
