<svg width="100" height="100" viewBox="0 0 100 100" fill="none" xmlns="http://www.w3.org/2000/svg">
<path d="M0 20C0 8.9543 8.95431 0 20 0H80C91.0457 0 100 8.95431 100 20V80C100 91.0457 91.0457 100 80 100H20C8.9543 100 0 91.0457 0 80V20Z" fill="#BA6BFF"/>
<path d="M40.96 68.456C41.2 68.456 41.38 68.576 41.5 68.816C41.644 69.08 41.716 69.416 41.716 69.824C41.716 70.592 41.512 71.348 41.104 72.092C40.288 73.58 39.208 74.72 37.864 75.512C36.544 76.328 35.188 76.736 33.796 76.736C32.38 76.736 31.192 76.508 30.232 76.052C29.272 75.62 28.456 74.96 27.784 74.072C27.112 73.208 26.464 72.056 25.84 70.616C25.192 69.128 24.652 68.012 24.22 67.268C23.812 66.548 23.38 66.02 22.924 65.684C22.468 65.348 21.88 65.108 21.16 64.964C18.496 64.436 16.348 63.116 14.716 61.004C13.108 58.892 12.304 56.168 12.304 52.832C12.304 49.184 12.964 45.968 14.284 43.184C15.628 40.4 17.44 38.252 19.72 36.74C22.024 35.228 24.568 34.472 27.352 34.472C29.488 34.472 31.408 34.952 33.112 35.912C34.84 36.872 36.208 38.288 37.216 40.16C38.224 42.008 38.728 44.228 38.728 46.82C38.728 49.844 38.272 52.568 37.36 54.992C36.448 57.416 35.188 59.432 33.58 61.04C31.972 62.648 30.124 63.788 28.036 64.46C28.636 64.796 29.152 65.288 29.584 65.936C30.04 66.584 30.52 67.52 31.024 68.744C31.576 70.088 32.164 71.048 32.788 71.624C33.436 72.2 34.228 72.488 35.164 72.488C35.956 72.488 36.724 72.212 37.468 71.66C38.212 71.132 39.052 70.256 39.988 69.032C40.276 68.648 40.6 68.456 40.96 68.456ZM24.04 60.932C25.912 60.932 27.556 60.356 28.972 59.204C30.412 58.052 31.516 56.456 32.284 54.416C33.052 52.352 33.436 50.024 33.436 47.432C33.436 44.576 32.836 42.416 31.636 40.952C30.436 39.464 28.888 38.72 26.992 38.72C25.168 38.72 23.536 39.308 22.096 40.484C20.68 41.636 19.576 43.232 18.784 45.272C17.992 47.312 17.596 49.628 17.596 52.22C17.596 55.076 18.196 57.248 19.396 58.736C20.596 60.2 22.144 60.932 24.04 60.932Z" fill="white"/>
<path d="M67.9746 54.056C68.0466 54.032 68.1666 54.02 68.3346 54.02C68.6946 54.02 68.9706 54.14 69.1626 54.38C69.3546 54.62 69.4506 54.944 69.4506 55.352C69.4506 56.096 69.3066 56.684 69.0186 57.116C68.7306 57.524 68.2986 57.824 67.7226 58.016C66.6186 58.376 65.4426 58.556 64.1946 58.556C63.1386 58.556 62.1426 58.412 61.2066 58.124C60.5106 59.252 59.7426 60.416 58.9026 61.616C57.9426 62.984 57.1146 63.92 56.4186 64.424C55.7466 64.928 54.9786 65.18 54.1146 65.18C53.1546 65.18 52.4226 64.808 51.9186 64.064C51.4386 63.32 51.1386 62.096 51.0186 60.392L50.8386 57.764C50.0946 59.78 49.4226 61.316 48.8226 62.372C48.2466 63.428 47.6586 64.16 47.0586 64.568C46.4826 64.976 45.7986 65.18 45.0066 65.18C44.0226 65.18 43.2426 64.796 42.6666 64.028C42.1146 63.26 41.7666 62.048 41.6226 60.392C41.3346 57.032 41.1906 54.092 41.1906 51.572V50.312C41.2146 49.52 41.4306 48.968 41.8386 48.656C42.2466 48.344 42.8586 48.188 43.6746 48.188C44.2986 48.188 44.7546 48.332 45.0426 48.62C45.3546 48.884 45.5106 49.34 45.5106 49.988C45.5106 52.748 45.6786 56.336 46.0146 60.752C47.6466 57.32 49.1466 53.744 50.5146 50.024C50.7786 49.304 51.0906 48.824 51.4506 48.584C51.8346 48.32 52.2906 48.188 52.8186 48.188C53.4666 48.188 53.9106 48.32 54.1506 48.584C54.4146 48.848 54.5466 49.316 54.5466 49.988C54.5466 52.748 54.7146 56.336 55.0506 60.752C56.4906 58.616 57.5706 56.912 58.2906 55.64C57.9306 54.944 57.7506 54.116 57.7506 53.156C57.7506 52.34 57.9306 51.548 58.2906 50.78C58.6506 50.012 59.1426 49.388 59.7666 48.908C60.3906 48.428 61.0986 48.188 61.8906 48.188C62.5866 48.188 63.1506 48.44 63.5826 48.944C64.0146 49.424 64.2306 50.132 64.2306 51.068C64.2306 52.148 63.9426 53.384 63.3666 54.776C64.2786 54.728 65.4906 54.548 67.0026 54.236L67.9746 54.056Z" fill="white"/>
<path d="M80.9057 65.18C78.0497 65.18 75.5657 64.664 73.4537 63.632C71.3417 62.576 69.7217 61.088 68.5937 59.168C67.4657 57.248 66.9017 55.016 66.9017 52.472C66.9017 48.944 67.5617 45.812 68.8817 43.076C70.2257 40.34 72.0377 38.228 74.3177 36.74C76.5977 35.228 79.1297 34.472 81.9137 34.472C84.5057 34.472 86.4737 35.144 87.8177 36.488C89.1617 37.808 89.8337 39.56 89.8337 41.744C89.8337 43.208 89.5697 44.384 89.0417 45.272C88.5377 46.16 87.8057 46.604 86.8457 46.604C86.1737 46.604 85.6457 46.448 85.2617 46.136C84.8777 45.824 84.6857 45.368 84.6857 44.768C84.6857 44.552 84.7337 44.156 84.8297 43.58C84.9737 42.86 85.0457 42.284 85.0457 41.852C85.0457 39.668 83.8817 38.576 81.5537 38.576C79.9697 38.576 78.4577 39.092 77.0177 40.124C75.5777 41.156 74.4137 42.68 73.5257 44.696C72.6377 46.688 72.1937 49.064 72.1937 51.824C72.1937 54.704 72.9977 56.936 74.6057 58.52C76.2137 60.08 78.5897 60.86 81.7337 60.86C83.2937 60.86 84.8657 60.668 86.4497 60.284C88.0577 59.876 89.8337 59.264 91.7777 58.448C92.1377 58.304 92.4377 58.232 92.6777 58.232C93.0617 58.232 93.3497 58.376 93.5417 58.664C93.7337 58.952 93.8297 59.324 93.8297 59.78C93.8297 61.244 93.0377 62.324 91.4537 63.02C89.7497 63.764 87.9737 64.316 86.1257 64.676C84.3017 65.012 82.5617 65.18 80.9057 65.18Z" fill="white"/>
</svg>
