<svg width="200" height="100" viewBox="0 0 200 100" fill="none" xmlns="http://www.w3.org/2000/svg">
<path d="M0 20C0 8.9543 8.95431 0 20 0H180C191.046 0 200 8.95431 200 20V80C200 91.0457 191.046 100 180 100H20C8.95431 100 0 91.0457 0 80V20Z" fill="#BA6BFF"/>
<path d="M71.9775 78.144C72.4042 78.144 72.7242 78.3573 72.9375 78.784C73.1935 79.2533 73.3215 79.8507 73.3215 80.576C73.3215 81.9413 72.9588 83.2853 72.2335 84.608C70.7828 87.2533 68.8628 89.28 66.4735 90.688C64.1268 92.1387 61.7162 92.864 59.2415 92.864C56.7242 92.864 54.6122 92.4587 52.9055 91.648C51.1988 90.88 49.7482 89.7067 48.5535 88.128C47.3588 86.592 46.2068 84.544 45.0975 81.984C43.9455 79.3387 42.9855 77.3547 42.2175 76.032C41.4922 74.752 40.7242 73.8133 39.9135 73.216C39.1028 72.6187 38.0575 72.192 36.7775 71.936C32.0415 70.9973 28.2228 68.6507 25.3215 64.896C22.4628 61.1413 21.0335 56.2987 21.0335 50.368C21.0335 43.8827 22.2068 38.1653 24.5535 33.216C26.9428 28.2667 30.1642 24.448 34.2175 21.76C38.3135 19.072 42.8362 17.728 47.7855 17.728C51.5828 17.728 54.9962 18.5813 58.0255 20.288C61.0975 21.9947 63.5295 24.512 65.3215 27.84C67.1135 31.1253 68.0095 35.072 68.0095 39.68C68.0095 45.056 67.1988 49.8987 65.5775 54.208C63.9562 58.5173 61.7162 62.1013 58.8575 64.96C55.9988 67.8187 52.7135 69.8453 49.0015 71.04C50.0682 71.6373 50.9855 72.512 51.7535 73.664C52.5642 74.816 53.4175 76.48 54.3135 78.656C55.2948 81.0453 56.3402 82.752 57.4495 83.776C58.6015 84.8 60.0095 85.312 61.6735 85.312C63.0815 85.312 64.4468 84.8213 65.7695 83.84C67.0922 82.9013 68.5855 81.344 70.2495 79.168C70.7615 78.4853 71.3375 78.144 71.9775 78.144ZM41.8975 64.768C45.2255 64.768 48.1482 63.744 50.6655 61.696C53.2255 59.648 55.1882 56.8107 56.5535 53.184C57.9188 49.5147 58.6015 45.376 58.6015 40.768C58.6015 35.6907 57.5348 31.8507 55.4015 29.248C53.2682 26.6027 50.5162 25.28 47.1455 25.28C43.9028 25.28 41.0015 26.3253 38.4415 28.416C35.9242 30.464 33.9615 33.3013 32.5535 36.928C31.1455 40.5547 30.4415 44.672 30.4415 49.28C30.4415 54.3573 31.5082 58.2187 33.6415 60.864C35.7748 63.4667 38.5268 64.768 41.8975 64.768Z" fill="white"/>
<path d="M120.004 52.544C120.132 52.5013 120.345 52.48 120.644 52.48C121.284 52.48 121.774 52.6933 122.116 53.12C122.457 53.5467 122.628 54.1227 122.628 54.848C122.628 56.1707 122.371 57.216 121.859 57.984C121.347 58.7093 120.58 59.2427 119.556 59.584C117.593 60.224 115.502 60.544 113.284 60.544C111.406 60.544 109.635 60.288 107.971 59.776C106.734 61.7813 105.369 63.8507 103.876 65.984C102.169 68.416 100.697 70.08 99.4595 70.976C98.2648 71.872 96.8995 72.32 95.3635 72.32C93.6568 72.32 92.3555 71.6587 91.4595 70.336C90.6062 69.0133 90.0728 66.8373 89.8595 63.808L89.5395 59.136C88.2168 62.72 87.0222 65.4507 85.9555 67.328C84.9315 69.2053 83.8862 70.5067 82.8195 71.232C81.7955 71.9573 80.5795 72.32 79.1715 72.32C77.4222 72.32 76.0355 71.6373 75.0115 70.272C74.0302 68.9067 73.4115 66.752 73.1555 63.808C72.6435 57.8347 72.3875 52.608 72.3875 48.128V45.888C72.4302 44.48 72.8142 43.4987 73.5395 42.944C74.2648 42.3893 75.3528 42.112 76.8035 42.112C77.9128 42.112 78.7235 42.368 79.2355 42.88C79.7902 43.3493 80.0675 44.16 80.0675 45.312C80.0675 50.2187 80.3662 56.5973 80.9635 64.448C83.8648 58.3467 86.5315 51.9893 88.9635 45.376C89.4328 44.096 89.9875 43.2427 90.6275 42.816C91.3102 42.3467 92.1208 42.112 93.0595 42.112C94.2115 42.112 95.0008 42.3467 95.4275 42.816C95.8968 43.2853 96.1315 44.1173 96.1315 45.312C96.1315 50.2187 96.4302 56.5973 97.0275 64.448C99.5875 60.6507 101.508 57.6213 102.788 55.36C102.148 54.1227 101.827 52.6507 101.827 50.944C101.827 49.4933 102.148 48.0853 102.788 46.72C103.428 45.3547 104.302 44.2453 105.411 43.392C106.521 42.5387 107.78 42.112 109.188 42.112C110.425 42.112 111.428 42.56 112.196 43.456C112.964 44.3093 113.348 45.568 113.348 47.232C113.348 49.152 112.836 51.3493 111.812 53.824C113.433 53.7387 115.588 53.4187 118.275 52.864L120.004 52.544Z" fill="white"/>
<path d="M125.456 37.952C123.664 37.952 122.32 37.5467 121.424 36.736C120.528 35.8827 120.08 34.7093 120.08 33.216C120.08 31.7227 120.656 30.4853 121.808 29.504C123.003 28.48 124.475 27.968 126.224 27.968C127.803 27.968 129.083 28.352 130.064 29.12C131.045 29.888 131.536 30.976 131.536 32.384C131.536 34.0907 130.981 35.456 129.872 36.48C128.763 37.4613 127.291 37.952 125.456 37.952ZM124.944 72.32C122.171 72.32 120.144 71.3387 118.864 69.376C117.627 67.4133 117.008 64.8107 117.008 61.568C117.008 59.648 117.243 57.1947 117.712 54.208C118.224 51.1787 118.864 48.3627 119.632 45.76C120.016 44.3947 120.528 43.456 121.168 42.944C121.808 42.432 122.832 42.176 124.24 42.176C126.416 42.176 127.504 42.9013 127.504 44.352C127.504 45.4187 127.099 47.8933 126.288 51.776C125.264 56.4693 124.752 59.648 124.752 61.312C124.752 62.592 124.923 63.5733 125.264 64.256C125.605 64.9387 126.181 65.28 126.992 65.28C127.76 65.28 128.72 64.7467 129.872 63.68C131.024 62.6133 132.56 60.928 134.48 58.624C134.992 58.0267 135.568 57.728 136.208 57.728C136.763 57.728 137.189 57.984 137.488 58.496C137.829 59.008 138 59.712 138 60.608C138 62.3147 137.595 63.6373 136.784 64.576C132.56 69.7387 128.613 72.32 124.944 72.32Z" fill="white"/>
<path d="M144.726 72.32C140.673 72.32 137.494 71.1467 135.19 68.8C132.929 66.4107 131.798 63.2747 131.798 59.392C131.798 55.936 132.481 52.9067 133.846 50.304C135.211 47.7013 136.982 45.696 139.158 44.288C141.334 42.88 143.617 42.176 146.006 42.176C148.353 42.176 150.166 42.88 151.446 44.288C152.769 45.6533 153.43 47.424 153.43 49.6C153.43 51.392 153.025 52.9067 152.214 54.144C151.446 55.3813 150.422 56 149.142 56C148.331 56 147.67 55.808 147.158 55.424C146.689 55.04 146.454 54.5067 146.454 53.824C146.454 53.5253 146.497 53.184 146.582 52.8C146.667 52.416 146.731 52.1387 146.774 51.968C146.987 51.328 147.094 50.7307 147.094 50.176C147.094 49.6213 146.945 49.1947 146.646 48.896C146.39 48.5973 146.006 48.448 145.494 48.448C144.513 48.448 143.595 48.896 142.742 49.792C141.889 50.6453 141.206 51.8187 140.694 53.312C140.182 54.8053 139.926 56.448 139.926 58.24C139.926 60.672 140.417 62.528 141.398 63.808C142.422 65.0453 143.851 65.664 145.686 65.664C147.137 65.664 148.459 65.2373 149.654 64.384C150.891 63.5307 152.107 62.272 153.302 60.608C153.814 59.968 154.39 59.648 155.03 59.648C155.585 59.648 156.011 59.904 156.31 60.416C156.651 60.928 156.822 61.632 156.822 62.528C156.822 64.064 156.459 65.3867 155.734 66.496C154.582 68.288 153.067 69.7173 151.19 70.784C149.313 71.808 147.158 72.32 144.726 72.32Z" fill="white"/>
<path d="M180.051 72.32C178.173 72.32 176.744 71.808 175.762 70.784C174.824 69.76 174.355 68.416 174.355 66.752C174.355 64.832 174.888 63.296 175.954 62.144C177.064 60.992 178.6 60.416 180.562 60.416C182.44 60.416 183.848 60.8853 184.786 61.824C185.768 62.72 186.258 64.064 186.258 65.856C186.258 67.8187 185.704 69.3973 184.594 70.592C183.485 71.744 181.971 72.32 180.051 72.32Z" fill="white"/>
</svg>
